<svg style="position: absolute; width: 0; height: 0; overflow: hidden;" version="1.1" xmlns="http://www.w3.org/2000/svg" xmlns:xlink="http://www.w3.org/1999/xlink">
<defs>
<symbol id="icon-calendar" viewBox="0 0 32 32">
<title>calendar</title>
<path class="path1" d="M11.313 12.25h3.75v3.75h-3.75zM16.938 12.25h3.75v3.75h-3.75zM22.563 12.25h3.75v3.75h-3.75zM5.688 23.5h3.75v3.75h-3.75zM11.313 23.5h3.75v3.75h-3.75zM16.938 23.5h3.75v3.75h-3.75zM11.313 17.875h3.75v3.75h-3.75zM16.938 17.875h3.75v3.75h-3.75zM22.563 17.875h3.75v3.75h-3.75zM5.688 17.875h3.75v3.75h-3.75zM26.313 1v1.875h-3.75v-1.875h-13.125v1.875h-3.75v-1.875h-3.75v30h28.125v-30h-3.75zM28.188 29.125h-24.375v-20.625h24.375v20.625z"></path>
</symbol>
<symbol id="icon-cog" viewBox="0 0 32 32">
<title>cog</title>
<path class="path1" d="M27.533 20.687c-1.469-2.544-0.586-5.805 1.973-7.287l-2.752-4.766c-0.786 0.461-1.7 0.725-2.675 0.725-2.94 0-5.324-2.399-5.324-5.359h-5.503c0.007 0.914-0.221 1.84-0.71 2.687-1.469 2.545-4.735 3.41-7.297 1.935l-2.751 4.766c0.792 0.45 1.478 1.11 1.966 1.954 1.467 2.54 0.588 5.795-1.961 7.28l2.752 4.766c0.783-0.457 1.693-0.718 2.663-0.718 2.931 0 5.309 2.384 5.324 5.331h5.503c-0.002-0.904 0.226-1.82 0.71-2.658 1.467-2.54 4.724-3.407 7.285-1.942l2.752-4.766c-0.787-0.45-1.468-1.107-1.953-1.948zM16 23.669c-3.131 0-5.669-2.538-5.669-5.669s2.538-5.669 5.669-5.669c3.131 0 5.669 2.538 5.669 5.669s-2.538 5.669-5.669 5.669z"></path>
</symbol>
<symbol id="icon-checkbox-checked" viewBox="0 0 32 32">
<title>checkbox-checked</title>
<path class="path1" d="M26.5 4h-21c-1.925 0-3.5 1.575-3.5 3.5v21c0 1.925 1.575 3.5 3.5 3.5h21c1.925 0 3.5-1.575 3.5-3.5v-21c0-1.925-1.575-3.5-3.5-3.5zM14.25 25.725l-6.487-6.488 2.475-2.475 4.013 4.013 8.388-8.388 2.475 2.475-10.862 10.863z"></path>
</symbol>
<symbol id="icon-checkbox-unchecked" viewBox="0 0 32 32">
<title>checkbox-unchecked</title>
<path class="path1" d="M26.5 4h-21c-1.925 0-3.5 1.575-3.5 3.5v21c0 1.925 1.575 3.5 3.5 3.5h21c1.925 0 3.5-1.575 3.5-3.5v-21c0-1.925-1.575-3.5-3.5-3.5zM26.5 28.5h-21v-21h21v21z"></path>
</symbol>
<symbol id="icon-new-tab" viewBox="0 0 32 32">
<title>new-tab</title>
<path class="path1" d="M8 2v24h24v-24h-24zM30 24h-20v-20h20v20zM6 28v-21l-2-2v25h25l-2-2h-21z"></path>
<path class="path2" d="M13 8l5 5-6 6 3 3 6-6 5 5v-13z"></path>
</symbol>
<symbol id="icon-twitter" viewBox="0 0 32 32">
<title>twitter</title>
<path class="path1" d="M32 6.076c-1.177 0.522-2.443 0.875-3.771 1.034 1.355-0.813 2.396-2.099 2.887-3.632-1.269 0.752-2.674 1.299-4.169 1.593-1.198-1.276-2.904-2.073-4.792-2.073-3.626 0-6.565 2.939-6.565 6.565 0 0.515 0.058 1.016 0.17 1.496-5.456-0.274-10.294-2.888-13.532-6.86-0.565 0.97-0.889 2.097-0.889 3.301 0 2.278 1.159 4.287 2.921 5.465-1.076-0.034-2.088-0.329-2.974-0.821-0.001 0.027-0.001 0.055-0.001 0.083 0 3.181 2.263 5.834 5.266 6.437-0.551 0.15-1.131 0.23-1.73 0.23-0.423 0-0.834-0.041-1.235-0.118 0.835 2.608 3.26 4.506 6.133 4.559-2.247 1.761-5.078 2.81-8.154 2.81-0.53 0-1.052-0.031-1.566-0.092 2.905 1.863 6.356 2.95 10.064 2.95 12.076 0 18.679-10.004 18.679-18.68 0-0.285-0.006-0.568-0.019-0.849 1.283-0.926 2.396-2.082 3.276-3.398z"></path>
</symbol>
<symbol id="icon-feed" viewBox="0 0 32 32">
<title>feed</title>
<path class="path1" d="M5.681 22.562c-2.065 0-3.743 1.685-3.743 3.737 0 2.064 1.678 3.73 3.743 3.73 2.073 0 3.749-1.666 3.749-3.73-0-2.053-1.676-3.737-3.749-3.737zM1.942 11.494v5.39c3.51 0 6.81 1.373 9.296 3.859 2.482 2.481 3.853 5.796 3.853 9.319h5.414c-0-10.24-8.33-18.569-18.563-18.569zM1.948 1.938v5.393c12.518 0 22.708 10.199 22.708 22.732h5.407c0-15.504-12.614-28.125-28.114-28.125z"></path>
</symbol>
</defs>
</svg>
